<?xml version="1.0" encoding="UTF-8" standalone="no"?>
<!-- Generator: Adobe Illustrator 26.0.3, SVG Export Plug-In . SVG Version: 6.00 Build 0)  -->

<svg
   version="1.0"
   id="katman_1"
   x="0px"
   y="0px"
   viewBox="0 0 1000 1000"
   xml:space="preserve"
   sodipodi:docname="github-icon.svg"
   width="1000"
   height="1000"
   inkscape:version="1.4.2 (ebf0e940d0, 2025-05-08)"
   xmlns:inkscape="http://www.inkscape.org/namespaces/inkscape"
   xmlns:sodipodi="http://sodipodi.sourceforge.net/DTD/sodipodi-0.dtd"
   xmlns="http://www.w3.org/2000/svg"
   xmlns:svg="http://www.w3.org/2000/svg"><defs
   id="defs7">
		
			<linearGradient
   id="SVGID_1_"
   gradientUnits="userSpaceOnUse"
   x1="209.6214"
   y1="493.76071"
   x2="506.50589"
   y2="196.8893"
   gradientTransform="matrix(1.6815467,0,0,-1.6815467,-102.93242,1086.7641)">
			<stop
   offset="0"
   style="stop-color:#3FE0C5"
   id="stop1" />
			<stop
   offset="0.5"
   style="stop-color:#E4A663"
   id="stop2" />
			<stop
   offset="0.56"
   style="stop-color:#E49D68"
   id="stop3" />
			<stop
   offset="0.67"
   style="stop-color:#E58577"
   id="stop4" />
			<stop
   offset="0.8"
   style="stop-color:#E65D8F"
   id="stop5" />
			<stop
   offset="0.95"
   style="stop-color:#E826B0"
   id="stop6" />
			<stop
   offset="1"
   style="stop-color:#E911BD"
   id="stop7" />
		</linearGradient>
		
	</defs><sodipodi:namedview
   id="namedview7"
   pagecolor="#ffffff"
   bordercolor="#000000"
   borderopacity="0.25"
   inkscape:showpageshadow="2"
   inkscape:pageopacity="0.0"
   inkscape:pagecheckerboard="0"
   inkscape:deskcolor="#d1d1d1"
   inkscape:zoom="0.52"
   inkscape:cx="423.07692"
   inkscape:cy="412.5"
   inkscape:window-width="1920"
   inkscape:window-height="1011"
   inkscape:window-x="0"
   inkscape:window-y="0"
   inkscape:window-maximized="1"
   inkscape:current-layer="katman_1" />
<style
   type="text/css"
   id="style1">
	.st0{fill:url(#SVGID_1_);}
</style>
<rect
   style="display:block;fill:#ffffff;fill-opacity:1;stroke-width:45.833;stroke-linecap:square;stroke-miterlimit:0"
   id="rect1"
   width="1000"
   height="1000"
   x="0"
   y="0"
   inkscape:label="Background" /><path
   class="st0"
   d="m 495.70377,158.64178 c 62.1522,-0.42963 123.44518,15.03682 177.86415,45.11047 54.56219,30.07365 97.38136,71.0311 128.45744,122.87233 C 834.10391,380.32753 850,439.04275 850,503.05667 850,581.24816 828.08923,651.13358 784.41077,712.71297 740.7324,774.29234 683.44926,816.96828 612.991,840.4544 c -7.59002,1.86164 -13.46154,0.85924 -17.61456,-2.86419 -4.15304,-3.58023 -6.44436,-8.73566 -6.30115,-14.1776 V 704.83654 c 0,-30.07365 -8.01965,-51.69804 -24.05892,-64.87317 34.79951,-3.72341 60.72013,-8.44925 77.61866,-14.17758 26.35024,-9.45171 46.68576,-23.48608 60.72012,-42.38952 16.03929,-24.48854 24.05892,-57.85598 23.91573,-100.2455 0,-17.90098 -3.29379,-33.36742 -9.88135,-46.54255 -4.72587,-9.45172 -13.60476,-21.19477 -26.77987,-35.22913 4.00982,-10.88381 6.44435,-22.34044 7.01718,-33.94026 0.85924,-21.19476 -2.43453,-42.24632 -9.88134,-62.15222 -9.45172,-2.86415 -22.62684,-1.00244 -39.52538,5.58511 -13.60474,5.87152 -26.77986,12.45908 -39.52536,19.76269 L 590.36415,343.3799 C 561.29296,334.93064 531.07611,330.63441 500.71604,330.63441 470.78559,330.4912 441.14157,334.78743 412.5,343.3799 l -18.33061,-12.74549 c -13.17511,-7.59002 -26.77986,-14.17758 -40.95744,-19.76269 -16.89853,-6.58755 -29.64403,-8.44926 -38.09329,-5.58511 -8.30606,19.61948 -11.59984,40.95746 -9.73814,62.15222 0,13.17511 1.8617,24.05891 5.58511,32.50818 -9.88134,11.88626 -18.1874,24.91816 -24.63175,38.95253 -5.15548,11.74306 -7.73323,26.49346 -7.73323,44.53765 0,42.38953 7.59002,75.32733 22.62684,98.95663 13.17513,19.76268 32.93781,34.36988 59.28806,43.6784 16.89852,5.5851 42.38953,10.31096 76.18658,14.17757 -12.17267,11.31342 -19.76269,27.20949 -22.62684,47.97463 -16.03929,7.59002 -31.64895,10.31096 -46.68576,8.30606 -24.48855,-1.8617 -43.24878,-14.60721 -56.4239,-38.09329 -5.44189,-10.16776 -13.17512,-18.76023 -22.62684,-25.34778 -6.73077,-3.86664 -13.89116,-7.16041 -21.19476,-9.88135 l -9.88134,-1.43208 c -10.31097,0 -15.75287,1.57528 -16.18248,4.86907 -0.42963,3.29378 1.57528,6.87397 6.30113,10.59737 l 7.01719,5.58511 c 7.73323,4.72586 14.46399,11.027 19.76268,18.33062 5.72832,6.73076 10.59738,14.46398 14.17758,22.62682 l 5.5851,11.17023 c 4.43945,13.89116 14.03438,25.49098 26.77988,32.50817 12.60228,7.01718 26.63666,11.31343 40.95744,12.7455 11.74305,0.85925 23.48609,0.42963 35.22913,-1.43207 l 15.60966,-1.43208 1.43208,86.06789 c 0.14321,5.44194 -2.29133,10.59737 -6.30115,14.1776 -4.29623,3.72343 -10.16775,4.72583 -17.61456,2.86419 C 318.41244,816.96828 260.55647,774.29234 216.30524,712.71297 172.05401,651.13358 150,581.24816 150,503.05667 c 0,-64.01392 15.03682,-122.44273 45.11047,-175 29.35762,-51.98445 72.31997,-94.94681 124.16121,-124.16121 52.55729,-30.21686 111.41572,-45.25368 176.43209,-45.25368 z M 271.15385,634.37827 c 1.8617,-1.8617 4.86906,-2.14812 7.01718,-0.71604 2.86415,1.43208 3.72341,3.29378 2.86415,5.58511 -0.85924,2.29131 -3.00735,2.57774 -6.30114,0.71603 -3.29378,-1.8617 -4.43945,-3.72341 -3.58019,-5.5851 z m 15.60965,11.31342 c 1.86171,-1.8617 4.29624,-1.43208 7.01719,1.43208 2.86416,2.86416 3.29377,5.15548 1.43208,7.01719 -1.86172,1.86169 -4.29625,1.43207 -7.01719,-1.43209 -2.86415,-2.86415 -3.29377,-5.15548 -1.43208,-7.01718 z m 14.03437,18.33061 c 2.57775,-1.7185 6.01473,-1.14567 7.73323,1.43208 0.28641,0.42961 0.57282,0.85924 0.71604,1.43207 2.86415,3.72341 2.86415,6.58756 0,8.44927 -1.00246,1.00245 -2.14812,1.00245 -3.58021,0 -1.57528,-1.00245 -3.29377,-2.00492 -5.01226,-2.86415 -1.7185,-4.72587 -1.7185,-7.59003 0.1432,-8.44927 z m 17.04175,19.76267 c 1.14565,-1.00244 2.86415,-1.28887 4.29623,-0.71603 3.7234,1.00245 6.73076,4.00982 7.73322,7.73322 0.57283,1.43208 0.28642,3.00737 -0.71604,4.29623 -2.86417,2.86417 -6.15794,2.29133 -9.88135,-1.43208 -1.71849,-1.43207 -2.72094,-3.43699 -2.86416,-5.5851 -0.14319,-1.57528 0.42963,-3.15057 1.4321,-4.29624 z m 22.62683,18.33061 c 0.85925,-3.72339 3.7234,-5.01227 8.44926,-3.5802 4.72586,1.43209 6.87398,3.29379 6.30115,5.58511 -0.28642,2.14812 -1.57529,4.00982 -3.5802,5.01228 -1.7185,1.00245 -3.86661,1.00245 -5.58511,0 -1.8617,-0.85924 -3.43698,-2.14812 -4.86906,-3.5802 -1.43208,-1.28887 -1.71849,-2.57774 -0.71604,-3.43699 z m 43.6784,5.58511 c 0,-1.00245 -0.71604,-1.8617 -2.14812,-2.86415 -2.00491,-1.14567 -4.15303,-1.57529 -6.30115,-1.43208 -4.72587,0 -7.01718,1.8617 -7.01718,5.5851 0,3.72341 2.57774,5.4419 7.73322,5.01227 5.01227,-0.28641 7.73323,-2.43453 7.73323,-6.30114 z m 18.47381,-8.30606 c 4.72585,0 7.3036,1.43209 7.73322,4.15303 0.42962,2.72095 -1.71849,5.15549 -6.30114,7.01718 -1.7185,0 -3.29378,-0.1432 -4.86907,-0.71603 -1.43208,-0.42962 -2.29133,-2.14812 -2.86416,-4.86907 -0.57283,-2.72095 1.43208,-4.72586 6.30115,-5.58511 z"
   id="path7"
   style="fill:url(#SVGID_1_);stroke-width:1.43208"
   inkscape:label="Icon" />
</svg>
