<?xml version="1.0" encoding="UTF-8" standalone="no"?>
<!-- Generator: Adobe Illustrator 26.0.3, SVG Export Plug-In . SVG Version: 6.00 Build 0)  -->

<svg
   version="1.0"
   id="katman_1"
   x="0px"
   y="0px"
   viewBox="0 0 1000 1000"
   xml:space="preserve"
   sodipodi:docname="github-icon.svg"
   width="1000"
   height="1000"
   inkscape:version="1.4.2 (ebf0e940d0, 2025-05-08)"
   xmlns:inkscape="http://www.inkscape.org/namespaces/inkscape"
   xmlns:sodipodi="http://sodipodi.sourceforge.net/DTD/sodipodi-0.dtd"
   xmlns="http://www.w3.org/2000/svg"
   xmlns:svg="http://www.w3.org/2000/svg"><defs
   id="defs7">
		
			<linearGradient
   id="SVGID_1_"
   gradientUnits="userSpaceOnUse"
   x1="209.6214"
   y1="493.76071"
   x2="506.50589"
   y2="196.8893"
   gradientTransform="matrix(1.9217676,0,0,-1.9217676,-189.06562,1170.5875)">
			<stop
   offset="0"
   style="stop-color:#3FE0C5"
   id="stop1" />
			<stop
   offset="0.5"
   style="stop-color:#E4A663"
   id="stop2" />
			<stop
   offset="0.56"
   style="stop-color:#E49D68"
   id="stop3" />
			<stop
   offset="0.67"
   style="stop-color:#E58577"
   id="stop4" />
			<stop
   offset="0.8"
   style="stop-color:#E65D8F"
   id="stop5" />
			<stop
   offset="0.95"
   style="stop-color:#E826B0"
   id="stop6" />
			<stop
   offset="1"
   style="stop-color:#E911BD"
   id="stop7" />
		</linearGradient>
		
	</defs><sodipodi:namedview
   id="namedview7"
   pagecolor="#ffffff"
   bordercolor="#000000"
   borderopacity="0.25"
   inkscape:showpageshadow="2"
   inkscape:pageopacity="0.0"
   inkscape:pagecheckerboard="0"
   inkscape:deskcolor="#d1d1d1"
   inkscape:zoom="0.52"
   inkscape:cx="423.07692"
   inkscape:cy="412.5"
   inkscape:window-width="1920"
   inkscape:window-height="1011"
   inkscape:window-x="0"
   inkscape:window-y="0"
   inkscape:window-maximized="1"
   inkscape:current-layer="katman_1" />
<style
   type="text/css"
   id="style1">
	.st0{fill:url(#SVGID_1_);}
</style>
<rect
   style="display:block;fill:#ffffff;fill-opacity:1;stroke-width:45.833;stroke-linecap:square;stroke-miterlimit:0"
   id="rect1"
   width="1000"
   height="1000"
   x="0"
   y="0"
   inkscape:label="Background" /><path
   class="st0"
   d="m 495.09002,109.87632 c 71.03109,-0.491 141.08021,17.18494 203.27332,51.55483 62.35679,34.36988 111.29298,81.1784 146.8085,140.42552 C 881.83304,363.23147 900,430.33458 900,503.49334 c 0,89.3617 -25.04088,169.23076 -74.95912,239.6072 -49.91814,70.37642 -115.38458,119.14893 -195.90831,145.99021 -8.67431,2.12759 -15.38462,0.98199 -20.13092,-3.27336 -4.74634,-4.09169 -7.36499,-9.98361 -7.20132,-16.20297 V 734.09891 c 0,-34.36989 -9.16531,-59.08348 -27.49591,-74.14077 39.77087,-4.25532 69.39444,-9.65628 88.70704,-16.20295 30.11456,-10.80195 53.35516,-26.84123 69.39443,-48.44516 18.33061,-27.98691 27.4959,-66.12112 27.33226,-114.56629 0,-20.45826 -3.76433,-38.13419 -11.29297,-53.19148 -5.401,-10.80197 -15.5483,-24.2226 -30.60557,-40.26187 4.58265,-12.43864 7.36497,-25.53193 8.01964,-38.78887 0.98198,-24.22258 -2.78232,-48.2815 -11.29296,-71.0311 -10.80197,-3.27332 -25.85925,-1.14565 -45.17187,6.38298 -15.54827,6.71031 -30.60555,14.23895 -45.17184,22.58593 L 603.27331,321.0056 C 570.0491,311.34931 535.51555,306.43933 500.81833,306.43933 466.6121,306.27566 432.73322,311.18564 400,321.0056 l -20.94927,-14.56627 c -15.05727,-8.67431 -30.60555,-16.20295 -46.8085,-22.58593 -19.31261,-7.52863 -33.87889,-9.6563 -43.53519,-6.38298 -9.49264,22.42226 -13.25696,46.80852 -11.1293,71.0311 0,15.05727 2.12765,27.4959 6.38298,37.15221 -11.29296,13.5843 -20.7856,28.4779 -28.15057,44.51718 -5.89198,13.42064 -8.83798,30.27824 -8.83798,50.90017 0,48.44518 8.67431,86.08838 25.85925,113.09329 15.05729,22.58592 37.64321,39.27986 67.75778,49.91817 19.31259,6.38297 48.44518,11.78396 87.07038,16.20294 -13.91163,12.92962 -22.58593,31.09656 -25.85925,54.82815 -18.33062,8.67431 -36.17023,11.78395 -53.35515,9.49264 -27.98692,-2.12766 -49.42718,-16.69396 -64.48446,-43.53519 -6.2193,-11.6203 -15.05728,-21.44026 -25.85925,-28.96889 -7.6923,-4.41902 -15.87561,-8.18333 -24.22258,-11.29297 l -11.29296,-1.63667 c -11.78396,0 -18.00328,1.80032 -18.49426,5.56465 -0.49101,3.76432 1.80032,7.85597 7.20129,12.11128 l 8.01965,6.38299 c 8.83797,5.40098 16.53027,12.60228 22.58592,20.94928 6.54665,7.69229 12.11129,16.53026 16.20294,25.85922 l 6.38298,12.76598 c 5.07365,15.87561 16.03929,29.13255 30.60557,37.15219 14.40261,8.01964 30.4419,12.92964 46.80851,14.56629 13.42062,0.982 26.84124,0.491 40.26186,-1.63665 L 400,771.25111 l 1.63666,98.36331 c 0.16367,6.21936 -2.61866,12.11128 -7.20131,16.20297 -4.90998,4.25535 -11.62029,5.40095 -20.13093,3.27336 C 292.47136,862.24947 226.35025,813.47696 175.77742,743.10054 125.20458,672.7241 100,592.85504 100,503.49334 c 0,-73.15876 17.18494,-139.93455 51.55482,-200 33.55157,-59.4108 82.6514,-108.51064 141.89853,-141.89852 60.06547,-34.53356 127.33225,-51.7185 201.63667,-51.7185 z M 238.46154,653.57517 c 2.12766,-2.12766 5.56464,-2.45499 8.01964,-0.81833 3.27331,1.63666 4.25532,3.76432 3.27331,6.38298 -0.98199,2.61864 -3.43697,2.94599 -7.2013,0.81832 -3.76432,-2.12766 -5.07366,-4.25532 -4.09165,-6.38297 z m 17.8396,12.92962 c 2.12767,-2.12765 4.90999,-1.63666 8.01965,1.63667 3.27332,3.27332 3.76431,5.89197 1.63666,8.01964 -2.12768,2.12765 -4.91,1.63665 -8.01964,-1.63667 -3.27332,-3.27332 -3.76431,-5.89198 -1.63667,-8.01964 z m 16.03928,20.94927 c 2.946,-1.964 6.87398,-1.30934 8.83798,1.63666 0.32733,0.49099 0.65465,0.98199 0.81833,1.63666 3.27332,4.25532 3.27332,7.52864 0,9.6563 -1.14567,1.14566 -2.45499,1.14566 -4.09167,0 -1.80032,-1.14565 -3.76431,-2.29133 -5.72829,-3.27331 -1.964,-5.40099 -1.964,-8.67432 0.16365,-9.65631 z m 19.47629,22.58591 c 1.30931,-1.14565 3.27331,-1.47299 4.90998,-0.81832 4.25531,1.14566 7.69229,4.58265 8.83796,8.83797 0.65466,1.63666 0.32734,3.43699 -0.81833,4.90997 -3.27334,3.27334 -7.03765,2.61867 -11.29297,-1.63666 -1.96399,-1.63665 -3.10965,-3.92799 -3.27333,-6.38297 -0.16364,-1.80032 0.49101,-3.60065 1.63669,-4.90999 z m 25.85923,20.94927 c 0.982,-4.2553 4.25532,-5.72831 9.6563,-4.09166 5.40098,1.63668 7.85598,3.76433 7.20131,6.38298 -0.32733,2.455 -1.80033,4.58266 -4.09165,5.72832 -1.964,1.14566 -4.41899,1.14566 -6.38299,0 -2.12765,-0.98198 -3.92797,-2.45499 -5.56464,-4.09165 -1.63666,-1.473 -1.96398,-2.94599 -0.81833,-3.92799 z m 49.91817,6.38298 c 0,-1.14566 -0.81833,-2.12766 -2.45499,-3.27331 -2.29133,-1.30934 -4.74632,-1.80033 -7.20131,-1.63667 -5.401,0 -8.01964,2.12766 -8.01964,6.38298 0,4.25532 2.94599,6.21931 8.83797,5.7283 5.72831,-0.32732 8.83797,-2.78232 8.83797,-7.2013 z m 21.11293,-9.49264 c 5.40097,0 8.34697,1.63668 8.83797,4.74632 0.49099,3.10966 -1.96399,5.89199 -7.20131,8.01964 -1.964,0 -3.76432,-0.16366 -5.56465,-0.81832 -1.63666,-0.491 -2.61866,-2.455 -3.27332,-5.56466 -0.65467,-3.10965 1.63666,-5.40098 7.20131,-6.38298 z"
   id="path7"
   style="fill:url(#SVGID_1_);stroke-width:1.63666"
   inkscape:label="Icon" />
</svg>
