<?xml version="1.0" encoding="UTF-8" standalone="no"?>
<!-- Created with Inkscape (http://www.inkscape.org/) -->

<svg
   width="550"
   height="650"
   viewBox="0 0 145.52083 171.97916"
   version="1.1"
   id="svg1"
   xml:space="preserve"
   inkscape:version="1.4.2 (ebf0e940d0, 2025-05-08)"
   sodipodi:docname="qr-code-frame.svg"
   xmlns:inkscape="http://www.inkscape.org/namespaces/inkscape"
   xmlns:sodipodi="http://sodipodi.sourceforge.net/DTD/sodipodi-0.dtd"
   xmlns="http://www.w3.org/2000/svg"
   xmlns:svg="http://www.w3.org/2000/svg"
   xmlns:rdf="http://www.w3.org/1999/02/22-rdf-syntax-ns#"
   xmlns:cc="http://creativecommons.org/ns#"><sodipodi:namedview
     id="namedview1"
     pagecolor="#ffffff"
     bordercolor="#000000"
     borderopacity="0.25"
     inkscape:showpageshadow="2"
     inkscape:pageopacity="0.0"
     inkscape:pagecheckerboard="0"
     inkscape:deskcolor="#d1d1d1"
     inkscape:document-units="px"
     inkscape:zoom="0.99906609"
     inkscape:cx="328.30661"
     inkscape:cy="325.80427"
     inkscape:window-width="1920"
     inkscape:window-height="1011"
     inkscape:window-x="0"
     inkscape:window-y="0"
     inkscape:window-maximized="1"
     inkscape:current-layer="layer6"
     showguides="true"><sodipodi:guide
       position="-13.229166,158.75"
       orientation="0,1"
       id="guide1"
       inkscape:locked="false"
       inkscape:label=""
       inkscape:color="rgb(0,134,229)" /><sodipodi:guide
       position="6.6145832,152.13541"
       orientation="-1,0"
       id="guide2"
       inkscape:locked="false"
       inkscape:label=""
       inkscape:color="rgb(0,134,229)" /><sodipodi:guide
       position="138.90625,152.13541"
       orientation="-1,0"
       id="guide3"
       inkscape:locked="false"
       inkscape:label=""
       inkscape:color="rgb(0,134,229)" /><sodipodi:guide
       position="13.229166,26.458332"
       orientation="0,1"
       id="guide4"
       inkscape:locked="false"
       inkscape:label=""
       inkscape:color="rgb(0,134,229)" /><sodipodi:guide
       position="235.86722,81.915261"
       orientation="1,0"
       id="guide5"
       inkscape:locked="false" /><sodipodi:guide
       position="13.229166,16.536458"
       orientation="0,1"
       id="guide6"
       inkscape:locked="false"
       inkscape:label=""
       inkscape:color="rgb(0,134,229)" /></sodipodi:namedview><defs
     id="defs1" /><metadata
     id="metadata1"><rdf:RDF><cc:Work
         rdf:about=""><cc:license
           rdf:resource="http://creativecommons.org/licenses/by-nc-sa/4.0/" /></cc:Work><cc:License
         rdf:about="http://creativecommons.org/licenses/by-nc-sa/4.0/"><cc:permits
           rdf:resource="http://creativecommons.org/ns#Reproduction" /><cc:permits
           rdf:resource="http://creativecommons.org/ns#Distribution" /><cc:requires
           rdf:resource="http://creativecommons.org/ns#Notice" /><cc:requires
           rdf:resource="http://creativecommons.org/ns#Attribution" /><cc:prohibits
           rdf:resource="http://creativecommons.org/ns#CommercialUse" /><cc:permits
           rdf:resource="http://creativecommons.org/ns#DerivativeWorks" /><cc:requires
           rdf:resource="http://creativecommons.org/ns#ShareAlike" /></cc:License></rdf:RDF></metadata><g
     inkscape:groupmode="layer"
     id="layer4"
     inkscape:label="Frame"
     style="display:inline"
     sodipodi:insensitive="true"><rect
       style="fill:#000000;fill-opacity:1;stroke-width:8.38189;stroke-linecap:square;stroke-miterlimit:0"
       id="rect1"
       width="145.52083"
       height="171.97916"
       x="-8.8817842e-16"
       y="-3.5527137e-15"
       rx="6.614583"
       ry="6.6145825"
       inkscape:label="Frame" /><rect
       style="fill:#ffffff;fill-opacity:1;stroke-width:7.00929;stroke-linecap:square;stroke-miterlimit:0"
       id="rect1-2"
       width="132.29167"
       height="132.29167"
       x="6.614583"
       y="6.6145787"
       rx="6.614584"
       ry="6.614583"
       inkscape:label="Background" /></g><g
     inkscape:groupmode="layer"
     id="layer6"
     inkscape:label="Text"
     sodipodi:insensitive="true"><path
       style="font-weight:500;font-size:17.6389px;line-height:1.25;font-family:Poppins;-inkscape-font-specification:'Poppins Medium';text-align:center;letter-spacing:0.051355px;word-spacing:0.0650496px;text-anchor:middle;fill:#ffffff;stroke-width:10.271;stroke-linecap:square;stroke-miterlimit:0"
       d="m 38.649979,161.71332 q -1.234723,0 -2.222501,-0.42334 -0.987779,-0.44097 -1.552223,-1.23472 -0.564445,-0.79375 -0.564445,-1.85209 h 2.151946 q 0.07055,0.79376 0.617361,1.30528 0.564445,0.51153 1.569862,0.51153 1.040695,0 1.622779,-0.49389 0.582084,-0.51153 0.582084,-1.30528 0,-0.61736 -0.370417,-1.00541 -0.352778,-0.38806 -0.899584,-0.59973 -0.529167,-0.21166 -1.481668,-0.45861 -1.199445,-0.3175 -1.957918,-0.635 -0.740833,-0.33514 -1.27,-1.02305 -0.529167,-0.68792 -0.529167,-1.83445 0,-1.05833 0.529167,-1.85208 0.529167,-0.79376 1.481667,-1.21709 0.952501,-0.42333 2.204863,-0.42333 1.781529,0 2.910418,0.89958 1.146529,0.88195 1.270001,2.43417 h -2.222501 q -0.05292,-0.67028 -0.635001,-1.14653 -0.582083,-0.47625 -1.534584,-0.47625 -0.864306,0 -1.411112,0.44097 -0.546806,0.44098 -0.546806,1.27 0,0.56445 0.335139,0.93487 0.352778,0.35277 0.881945,0.56444 0.529167,0.21167 1.44639,0.45861 1.217084,0.33514 1.975557,0.67028 0.776112,0.33514 1.305279,1.0407 0.546805,0.68791 0.546805,1.85208 0,0.93486 -0.511528,1.76389 -0.493889,0.82903 -1.464028,1.34056 -0.952501,0.49389 -2.25778,0.49389 z m 5.995666,-6.27945 q 0,-1.79917 0.829029,-3.22792 0.846667,-1.42875 2.275418,-2.2225 1.44639,-0.81139 3.157363,-0.81139 1.957918,0 3.474864,0.97014 1.534584,0.9525 2.222501,2.71639 h -2.416529 q -0.476251,-0.97014 -1.322918,-1.44639 -0.846667,-0.47625 -1.957918,-0.47625 -1.217084,0 -2.169585,0.5468 -0.9525,0.54681 -1.499306,1.56987 -0.529167,1.02305 -0.529167,2.38125 0,1.35819 0.529167,2.38125 0.546806,1.02306 1.499306,1.5875 0.952501,0.54681 2.169585,0.54681 1.111251,0 1.957918,-0.47625 0.846667,-0.47625 1.322918,-1.44639 h 2.416529 q -0.687917,1.76389 -2.222501,2.71639 -1.516946,0.9525 -3.474864,0.9525 -1.728612,0 -3.157363,-0.79375 -1.428751,-0.81139 -2.275418,-2.24014 -0.829029,-1.42875 -0.829029,-3.22792 z m 21.747216,3.65125 h -5.13292 l -0.881945,2.50472 h -2.099029 l 4.392086,-12.27667 h 2.328335 l 4.392087,12.27667 h -2.116669 z m -0.564444,-1.64042 -1.993196,-5.69736 -2.010835,5.69736 z m 15.591234,4.14514 h -2.010835 l -6.050143,-9.15459 v 9.15459 h -2.010835 v -12.27667 h 2.010835 l 6.050143,9.13695 v -9.13695 h 2.010835 z m 20.311399,-12.25903 v 12.25903 h -2.010832 v -8.39611 l -3.739447,8.39611 h -1.393474 l -3.757085,-8.39611 v 8.39611 h -2.010835 v -12.25903 h 2.169585 l 4.303891,9.6132 4.286253,-9.6132 z m 4.70803,1.62278 v 3.59833 h 4.23334 v 1.64042 h -4.23334 v 3.75709 h 4.7625 v 1.64041 h -6.77334 v -12.27667 h 6.77334 v 1.64042 z"
       id="text6-6"
       inkscape:label="SCAN ME"
       aria-label="SCAN ME" /><text
       xml:space="preserve"
       style="font-weight:500;font-size:17.6389px;line-height:1.25;font-family:Comfortaa;-inkscape-font-specification:'Comfortaa Medium';text-align:start;letter-spacing:0.051355px;word-spacing:0.0650496px;writing-mode:lr-tb;direction:ltr;text-anchor:start;display:none;fill:#ffffff;fill-opacity:1;stroke-width:10.271;stroke-linecap:square;stroke-miterlimit:0"
       x="72.817932"
       y="161.58984"
       id="text6-6-3"
       inkscape:label="SCAN ME"
       sodipodi:insensitive="true"><tspan
         sodipodi:role="line"
         id="tspan6-0-5"
         style="font-style:normal;font-variant:normal;font-weight:500;font-stretch:normal;font-size:17.6389px;font-family:Poppins;-inkscape-font-specification:'Poppins Medium';text-align:center;text-anchor:middle;fill:#ffffff;fill-opacity:1;stroke-width:10.271"
         x="0"
         y="0">SCAN ME</tspan></text></g><g
     inkscape:groupmode="layer"
     id="layer1"
     inkscape:label="Guides"
     style="display:none"
     sodipodi:insensitive="true"><rect
       style="fill:#000000;fill-opacity:0.439357;stroke-width:3.44545;stroke-linecap:square;stroke-miterlimit:0"
       id="rect6"
       width="13.229166"
       height="33.072903"
       x="-13.229166"
       y="138.90625"
       inkscape:label="Guide 1" /></g></svg>
